<mxfile host="app.diagrams.net" modified="2024-02-22T13:37:28.776Z" agent="Mozilla/5.0 (Windows NT 10.0; Win64; x64) AppleWebKit/537.36 (KHTML, like Gecko) Chrome/122.0.0.0 Safari/537.36" version="23.1.5" etag="YUYq-aIwLgbX0ap7cGJt" type="github">
  <diagram name="Page-1" id="AZVUH8mh3_5yq9V6MphX">
    <mxGraphModel>
      <root>
        <mxCell id="0" />
        <mxCell id="1" parent="0" />
      </root>
    </mxGraphModel>
  </diagram>
</mxfile>
